<?xml version="1.0" standalone="no"?>
<!DOCTYPE svg PUBLIC "-//W3C//DTD SVG 20010904//EN"
 "http://www.w3.org/TR/2001/REC-SVG-20010904/DTD/svg10.dtd">
<svg version="1.0" xmlns="http://www.w3.org/2000/svg"
 width="500.000000pt" height="400.000000pt" viewBox="0 0 500.000000 400.000000"
 preserveAspectRatio="xMidYMid meet">
<metadata>
Created by potrace 1.14, written by Peter Selinger 2001-2017
</metadata>
<g transform="translate(0.000000,400.000000) scale(0.100000,-0.100000)"
fill="#000000" stroke="none">
<path d="M2249 3370 c-604 -95 -1082 -564 -1183 -1159 -21 -124 -21 -358 0
-482 100 -589 565 -1050 1163 -1154 109 -19 363 -19 472 0 190 33 403 116 550
216 327 219 548 558 613 938 21 124 21 358 0 482 -84 493 -428 907 -903 1086
-154 58 -253 75 -461 78 -107 2 -220 0 -251 -5z m416 -82 c413 -56 807 -343
999 -726 49 -98 101 -256 121 -367 21 -117 21 -332 0 -450 -86 -490 -453 -905
-927 -1049 -135 -42 -240 -57 -393 -57 -152 0 -256 15 -393 57 -341 104 -645
361 -806 682 -49 98 -101 256 -121 367 -21 118 -21 333 0 450 89 498 458 910
942 1054 190 56 368 68 578 39z"/>
<path d="M2402 2989 c-66 -8 -147 -32 -194 -55 l-28 -14 17 -35 c12 -25 21
-34 32 -29 92 38 135 47 236 52 168 7 300 -36 415 -134 160 -136 229 -298 236
-549 l3 -120 36 -3 35 -3 0 108 c-1 358 -177 645 -458 747 -60 21 -219 49
-257 45 -5 -1 -39 -5 -73 -10z"/>
<path d="M2056 2829 c-161 -148 -246 -367 -246 -635 l0 -84 39 0 39 0 4 148
c6 166 24 241 86 352 34 62 120 159 171 193 25 16 25 17 8 52 -9 19 -21 35
-25 35 -5 0 -39 -27 -76 -61z"/>
<path d="M2442 2484 l-21 -41 92 -184 c51 -101 195 -395 321 -654 126 -259
235 -480 242 -492 11 -17 24 -23 49 -23 19 0 35 4 35 10 0 9 -512 1056 -647
1325 l-50 99 -21 -40z"/>
<path d="M2081 1741 c-168 -346 -305 -633 -305 -638 -1 -4 16 -9 36 -11 29 -3
40 1 52 20 8 13 139 284 291 602 l277 579 -18 39 c-9 21 -20 38 -23 38 -3 -1
-143 -284 -310 -629z"/>
</g>
</svg>
